<svg id="svg8" height="512" viewBox="0 0 16.933333 16.933334" width="512" xmlns="http://www.w3.org/2000/svg" xmlns:svg="http://www.w3.org/2000/svg"><g id="layer1"><path id="path10429" d="m10.847922 10.318749c-.35287 0-.35287.529297 0 .529297h.52916c.35287 0 .35287-.529297 0-.529297z" fill="#549ad4" font-variant-ligatures="normal" font-variant-position="normal" font-variant-caps="normal" font-variant-numeric="normal" font-variant-alternates="normal" font-feature-settings="normal" text-indent="0" text-align="start" text-decoration-line="none" text-decoration-style="solid" text-decoration-color="#000000" text-transform="none" text-orientation="mixed" white-space="normal" shape-padding="0" isolation="auto" mix-blend-mode="normal" solid-color="#000000" solid-opacity="1" vector-effect="none"/><path id="path10431" d="m10.847922 12.435285c-.35287 0-.35287.529297 0 .529297h.52916c.35287 0 .35287-.529297 0-.529297z" fill="#549ad4" font-variant-ligatures="normal" font-variant-position="normal" font-variant-caps="normal" font-variant-numeric="normal" font-variant-alternates="normal" font-feature-settings="normal" text-indent="0" text-align="start" text-decoration-line="none" text-decoration-style="solid" text-decoration-color="#000000" text-transform="none" text-orientation="mixed" white-space="normal" shape-padding="0" isolation="auto" mix-blend-mode="normal" solid-color="#000000" solid-opacity="1" vector-effect="none"/><path id="path10433" d="m11.641672 11.377082c-.35287 0-.35287.529297 0 .529297h.52916c.35287 0 .35287-.529297 0-.529297z" fill="#549ad4" font-variant-ligatures="normal" font-variant-position="normal" font-variant-caps="normal" font-variant-numeric="normal" font-variant-alternates="normal" font-feature-settings="normal" text-indent="0" text-align="start" text-decoration-line="none" text-decoration-style="solid" text-decoration-color="#000000" text-transform="none" text-orientation="mixed" white-space="normal" shape-padding="0" isolation="auto" mix-blend-mode="normal" solid-color="#000000" solid-opacity="1" vector-effect="none"/><g fill="#ff5151"><path id="path10435" d="m10.847922 6.0854156c-.35287 0-.35287.5292969 0 .5292969h.52916c.35287 0 .35287-.5292969 0-.5292969z" font-variant-ligatures="normal" font-variant-position="normal" font-variant-caps="normal" font-variant-numeric="normal" font-variant-alternates="normal" font-feature-settings="normal" text-indent="0" text-align="start" text-decoration-line="none" text-decoration-style="solid" text-decoration-color="#000000" text-transform="none" text-orientation="mixed" white-space="normal" shape-padding="0" isolation="auto" mix-blend-mode="normal" solid-color="#000000" solid-opacity="1" vector-effect="none"/><path id="path10437" d="m11.641672 5.0270825c-.35287 0-.35287.5292969 0 .5292969h.52916c.35287 0 .35287-.5292969 0-.5292969z" font-variant-ligatures="normal" font-variant-position="normal" font-variant-caps="normal" font-variant-numeric="normal" font-variant-alternates="normal" font-feature-settings="normal" text-indent="0" text-align="start" text-decoration-line="none" text-decoration-style="solid" text-decoration-color="#000000" text-transform="none" text-orientation="mixed" white-space="normal" shape-padding="0" isolation="auto" mix-blend-mode="normal" solid-color="#000000" solid-opacity="1" vector-effect="none"/><path id="path10439" d="m10.847922 3.9687494c-.35287 0-.35287.5292972 0 .5292972h.52916c.35287 0 .35287-.5292972 0-.5292972z" font-variant-ligatures="normal" font-variant-position="normal" font-variant-caps="normal" font-variant-numeric="normal" font-variant-alternates="normal" font-feature-settings="normal" text-indent="0" text-align="start" text-decoration-line="none" text-decoration-style="solid" text-decoration-color="#000000" text-transform="none" text-orientation="mixed" white-space="normal" shape-padding="0" isolation="auto" mix-blend-mode="normal" solid-color="#000000" solid-opacity="1" vector-effect="none"/><path id="path10245" d="m15.813716 13.983978c.659722.28397 1.119616.94087 1.119616 1.70959v.309941c0 .515119-.41302.929819-.92604.929819h-1.85209c-.51302 0-.92604-.4147-.92604-.929819v-.309941c0-.76893.460144-1.42599 1.120163-1.70983z"/></g><path id="circle10247" d="m16.139578 13.229167c0 .584501-.473832 1.058333-1.058333 1.058333s-1.058333-.473832-1.058333-1.058333.473832-1.058333 1.058333-1.058333 1.058333.473832 1.058333 1.058333z" fill="#ffc6a0"/><path id="path10249" d="m16.268773 14.264246c-.105835 1.51916-1.645893 2.196385-2.668571 2.480468.154857.116982.345434.188619.555005.188619h1.852083c.51302 0 .926042-.414539.926042-.929658v-.310059c0-.575746-.257865-1.088776-.664559-1.42937z" fill="#ff2929"/><path id="path10253" d="m15.515331 12.264885c.0622.136652.09461.284974.09508.435115 0 .584502-.473831 1.058334-1.058333 1.058334-.149718-.000293-.297669-.03235-.434082-.09405.170866.378849.547651.622627.963248.623217.584503.000003 1.058338-.473831 1.058338-1.058334-.000367-.416214-.244657-.793569-.624251-.964282z" fill="#ffaf7a"/><path id="path10257" d="m15.813716 7.898565c.659722.28397 1.119616.94087 1.119616 1.70959v.3099401c0 .5151199-.41302.9298199-.92604.9298199h-1.85209c-.51302 0-.92604-.4147-.92604-.9298199v-.3099401c0-.76893.460144-1.42599 1.120163-1.70983z" fill="#ffca28"/><path id="circle10259" d="m16.139578 7.1437535c0 .5845012-.473832 1.0583331-1.058333 1.0583331s-1.058333-.4738319-1.058333-1.0583331.473832-1.058333 1.058333-1.058333 1.058333.4738318 1.058333 1.058333z" fill="#ffc6a0"/><path id="path10261" d="m16.268773 8.1788326c-.105835 1.5191598-1.645893 2.1963854-2.668571 2.4804684.154857.116982.345434.188619.555005.188619h1.852083c.51302 0 .926042-.414539.926042-.9296589v-.3100585c0-.575746-.257865-1.0887765-.664559-1.42937z" fill="#ecb200"/><path id="path10265" d="m14.117996 7.5788693c.170866.3788492.54765.6226276.963248.6232178.584502.0000005 1.058334-.4738316 1.058334-1.0583333-.000367-.4162144-.244657-.7935693-.624249-.9642822.0622.1366518.09461.2849743.09508.4351154.000001.5845013-.473831 1.0583332-1.058332 1.0583333-.149717-.0002936-.297668-.03235-.434081-.094051z" fill="#ffaf7a"/><path id="path10273" d="m1.8520818.79374844c-1.02604996 0-1.85207995.82602396-1.85207995 1.85208396v11.6416666c0 1.02606.82602999 1.852082 1.85207995 1.852082h4.7625002c1.02605 0 1.85209-.826022 1.85209-1.852082v-11.6416666c0-1.02606-.82604-1.85208396-1.85209-1.85208396z" fill="#38668c"/><path id="path10277" d="m1.8520818 1.8520824c-.43974 0-.79375.35401-.79375.79375v11.3770826c0 .43974.35401.79375.79375.79375h4.7625002c.4397399 0 .79375-.35401.79375-.79375v-11.3770826c0-.43974-.3540101-.79375-.79375-.79375z" fill="#e4eff8"/><path id="path10279" d="m1.8520818 1.8520824c-.43974 0-.79375.35401-.79375.79375v11.3770826c0 .335325.20645.619726.4992.73639.0873-3.587732-.76377996-12.1134726 5.8425301-12.1951216-.0412001-.400472-.3737599-.712101-.7854799-.712101z" fill="#c4dcf0"/><path id="path10281" d="m6.085422.79374844c1.0260499 0 1.8520799.82602396 1.8520799 1.85208396v11.6416666c0 1.02606-.82603 1.852082-1.8520799 1.852082h.52916c1.02605 0 1.85209-.826022 1.85209-1.852082v-11.6416666c0-1.02606-.82604-1.85208396-1.85209-1.85208396z" fill="#2c5170"/><path id="path10285" d="m3.9026018 8.4666656c0-1.319213 1.0620401-2.3812511 2.3812503-2.3812511h3.5057302v-1.5875h-3.5796604c-2.1210799 0-3.8286701 1.7075899-3.8286701 3.8286759v.1400731z" fill="#549ad4"/><path id="path10287" d="m3.9026018 8.4666635c0 1.3192129 1.0620401 2.3812505 2.3812503 2.3812505h3.5057302v1.5875h-3.5796604c-2.1210799 0-3.8286701-1.70759-3.8286701-3.8286756v-.1400738z" fill="#ff5151"/><path id="path10299" d="m2.3812518 8.4666646v.1400429c0 2.1210855 1.7076201 3.8287065 3.8287101 3.8287065h3.5796204v-.79375h-3.5796204c-1.8976801 0-3.4603-1.368102-3.7692801-3.1749994z" fill="#ff2929"/><path id="path10301" d="m8.7312519 10.847914h1.0583304v1.5875h-1.0583304z" fill="#549ad4"/><path id="path10303" d="m2.3812518 8.4666656v-.1400442c0-2.121086 1.7076201-3.8287069 3.8287101-3.8287069h3.5796204v.79375h-3.5796204c-1.8976801 0-3.4603 1.368102-3.7692801 3.1750011z" fill="#3588cb"/><path id="path982" d="m33 17v6h4v-6z" fill="#ff5151" transform="scale(.265)"/><path id="path10305" d="m33 17v3h4v-3z" fill="#ff2929" transform="scale(.265)"/><path id="path10313" d="m6.879172 7.1437484h1.5875l-.79375.79375.52916.5291701-1.8520801 1.3229099.5291701-1.3229099-.5291701-.5291701z" fill="#ffca28"/><path id="path10269" d="m15.813716 1.8131445c.659722.28397 1.119616.94087 1.119616 1.70959v.30994c0 .51512-.41302.92982-.92604.92982h-1.85209c-.51302 0-.92604-.4147-.92604-.92982v-.30994c0-.76893.460144-1.42599 1.120163-1.70983z" fill="#549ad4"/><path id="circle10271" d="m16.139578 1.0583333c0 .5845012-.473832 1.058333-1.058333 1.058333s-1.058333-.4738318-1.058333-1.058333.473832-1.05833306 1.058333-1.05833306 1.058333.47383186 1.058333 1.05833306z" fill="#ffc6a0"/><path id="path10317" d="m16.268773 2.0934121c-.105835 1.5191599-1.645893 2.1963853-2.668571 2.4804686.154857.1169824.345434.1886191.555005.1886191h1.852083c.51302 0 .926042-.4145391.926042-.929659v-.3100586c0-.575746-.257865-1.0887766-.664559-1.4293701z" fill="#3588cb"/><path id="path10321" d="m14.117996 1.4934489c.170866.3788492.54765.6226276.963248.6232178.584502.0000005 1.058334-.4738316 1.058334-1.0583333-.000367-.41621443-.244657-.79356932-.624249-.96428234.0622.13665183.09461.28497428.09508.43511544.000001.5845013-.473831 1.0583333-1.058332 1.0583334-.149717-.0002936-.297668-.03235-.434081-.094051z" fill="#ffaf7a"/><path id="path10415" d="m7.672922 7.1437484h.79375l-.79375.79375.52916.5291701-1.8520801 1.3229099 1.0583301-1.3229099-.2645801-.5291701z" fill="#ecb200"/><path id="path10423" d="m3.7041719 13.493749c-.35287 0-.35287.529297 0 .529297h1.0583299c.35286 0 .35286-.529297 0-.529297z" fill="#549ad4" font-variant-ligatures="normal" font-variant-position="normal" font-variant-caps="normal" font-variant-numeric="normal" font-variant-alternates="normal" font-feature-settings="normal" text-indent="0" text-align="start" text-decoration-line="none" text-decoration-style="solid" text-decoration-color="#000000" text-transform="none" text-orientation="mixed" white-space="normal" shape-padding="0" isolation="auto" mix-blend-mode="normal" solid-color="#000000" solid-opacity="1" vector-effect="none"/><path id="path10425" d="m2.1166718 13.493749c-.35287 0-.35287.529297 0 .529297h.5291601c.3528699 0 .3528699-.529297 0-.529297z" fill="#549ad4" font-variant-ligatures="normal" font-variant-position="normal" font-variant-caps="normal" font-variant-numeric="normal" font-variant-alternates="normal" font-feature-settings="normal" text-indent="0" text-align="start" text-decoration-line="none" text-decoration-style="solid" text-decoration-color="#000000" text-transform="none" text-orientation="mixed" white-space="normal" shape-padding="0" isolation="auto" mix-blend-mode="normal" solid-color="#000000" solid-opacity="1" vector-effect="none"/><path id="path10427" d="m5.820832 13.493749c-.35286 0-.35286.529297 0 .529297h.5291699c.3528599 0 .3528599-.529297 0-.529297z" fill="#549ad4" font-variant-ligatures="normal" font-variant-position="normal" font-variant-caps="normal" font-variant-numeric="normal" font-variant-alternates="normal" font-feature-settings="normal" text-indent="0" text-align="start" text-decoration-line="none" text-decoration-style="solid" text-decoration-color="#000000" text-transform="none" text-orientation="mixed" white-space="normal" shape-padding="0" isolation="auto" mix-blend-mode="normal" solid-color="#000000" solid-opacity="1" vector-effect="none"/><path id="path984" d="m8.7312502 11.641667v.79375h1.0583334v-.79375z" fill="#3588cb"/></g></svg>