<svg enable-background="new 0 0 512 512" height="512" viewBox="0 0 512 512" width="512" xmlns="http://www.w3.org/2000/svg" xmlns:xlink="http://www.w3.org/1999/xlink"><linearGradient id="lg1"><stop offset="0" stop-color="#fd4755"/><stop offset="1" stop-color="#ffd15b"/></linearGradient><linearGradient id="SVGID_1_" gradientUnits="userSpaceOnUse" x1="77.873" x2="445.658" xlink:href="#lg1" y1="50.596" y2="418.38"/><linearGradient id="SVGID_2_" gradientUnits="userSpaceOnUse" x1="78.045" x2="445.604" xlink:href="#lg1" y1="51.393" y2="418.951"/><g id="Backup" display="none"><g display="inline"><g><g id="XMLID_32_"><g fill="#ffd15b"><path d="m361.772 232.016-52.708 109.988-23.26 48.529-83.049-.115-188.223-.254c.748-4.388 4.464-8.655 10.844-11.559l315.12-143.522c6.377-2.907 14.15-3.873 21.276-3.067z"/><path d="m377.411 237.849 124.085 100.948c3.905 3.18 5.431 7.012 4.78 10.771l-197.211-7.564 52.708-109.988c6.1.68 11.733 2.653 15.638 5.833z"/><path d="m309.065 342.004 197.211 7.564c-.722 4.395-4.458 8.664-10.833 11.569l-315.12 143.521c-6.38 2.907-14.167 3.884-21.284 3.062l43.718-117.302 83.049.115z"/><path d="m202.756 390.418-43.717 117.302c-6.119-.677-11.725-2.65-15.629-5.827l-124.086-100.95c-3.905-3.178-5.431-7.024-4.791-10.779z"/></g><g style="fill:none;stroke:#000;stroke-width:8;stroke-linecap:round;stroke-linejoin:round;stroke-miterlimit:10"><path d="m361.772 232.016c6.101.68 11.734 2.653 15.639 5.833l124.085 100.948c3.905 3.18 5.431 7.012 4.78 10.771-.722 4.395-4.458 8.664-10.833 11.569l-315.12 143.521c-6.38 2.907-14.167 3.884-21.284 3.062-6.119-.677-11.725-2.65-15.629-5.827l-124.086-100.95c-3.905-3.178-5.431-7.024-4.791-10.779.748-4.388 4.464-8.655 10.844-11.559l315.12-143.522c6.376-2.907 14.149-3.873 21.275-3.067z"/><path d="m14.52 390.169.014-.005 188.222.254 83.049.115 23.26-48.529 52.707-109.988.016-.01"/><path d="m506.295 349.574-.019-.006-197.211-7.564"/><path d="m159.034 507.735.005-.015 43.717-117.302"/></g></g></g><g style="fill:#fd4755;stroke:#000;stroke-width:8;stroke-linecap:round;stroke-linejoin:round;stroke-miterlimit:10"><path d="m139.759 77.43c0 26.946-11.884 48.794-26.542 48.794-14.66 0-26.543-21.848-26.543-48.794 0-26.945 11.883-48.792 26.543-48.792 14.658 0 26.542 21.847 26.542 48.792z"/><ellipse cx="113.216" cy="258.025" rx="49.289" ry="48.792"/><path d="m219.127 243.195c-10.931-4.163-26.282-18.738-26.282-44.761v-65.577c0-41.218-33.725-74.943-74.945-74.943h-9.367c-41.221 0-74.944 33.725-74.944 74.943v65.577c0 26.023-15.355 40.598-26.286 44.761-10.474 3.989 27.37 28.049 96.763 30.04 1.476.088 2.966.145 4.468.145h9.367c1.501 0 2.988-.057 4.468-.145 69.39-1.991 107.236-26.051 96.758-30.04z"/></g><g><path d="m314.252 209.232c-5.662 0-11.124-2.243-15.165-6.283l-71.952-71.95c-8.375-8.376-8.375-21.958 0-30.333 8.377-8.376 21.957-8.376 30.334 0l54.047 54.049 101.201-141.729c6.885-9.641 20.279-11.874 29.918-4.992 9.638 6.885 11.873 20.277 4.99 29.918l-115.917 162.335c-3.666 5.134-9.4 8.392-15.683 8.912-.591.049-1.186.073-1.773.073z" style="fill:#6fd7a3;stroke:#000;stroke-width:8;stroke-linecap:round;stroke-linejoin:round;stroke-miterlimit:10"/></g></g></g><g id="Main" display="none"><g display="inline"><g><g id="XMLID_97_"><g fill="#ffd15b"><path d="m361.772 232.016-52.708 109.988-23.26 48.529-83.049-.115-188.223-.254c.748-4.388 4.464-8.655 10.844-11.559l315.12-143.522c6.377-2.907 14.15-3.873 21.276-3.067z"/><path d="m377.411 237.849 124.085 100.948c3.905 3.18 5.431 7.012 4.78 10.771l-197.211-7.564 52.708-109.988c6.1.68 11.733 2.653 15.638 5.833z"/><path d="m309.065 342.004 197.211 7.564c-.722 4.395-4.458 8.664-10.833 11.569l-315.12 143.521c-6.38 2.907-14.167 3.884-21.284 3.062l43.718-117.302 83.049.115z"/><path d="m202.756 390.418-43.717 117.302c-6.119-.677-11.725-2.65-15.629-5.827l-124.086-100.95c-3.905-3.178-5.431-7.024-4.791-10.779z"/></g><g style="fill:none;stroke:#000;stroke-width:8;stroke-linecap:round;stroke-linejoin:round;stroke-miterlimit:10"><path d="m361.772 232.016c6.101.68 11.734 2.653 15.639 5.833l124.085 100.948c3.905 3.18 5.431 7.012 4.78 10.771-.722 4.395-4.458 8.664-10.833 11.569l-315.12 143.521c-6.38 2.907-14.167 3.884-21.284 3.062-6.119-.677-11.725-2.65-15.629-5.827l-124.086-100.95c-3.905-3.178-5.431-7.024-4.791-10.779.748-4.388 4.464-8.655 10.844-11.559l315.12-143.522c6.376-2.907 14.149-3.873 21.275-3.067z"/><path d="m14.52 390.169.014-.005 188.222.254 83.049.115 23.26-48.529 52.707-109.988.016-.01"/><path d="m506.295 349.574-.019-.006-197.211-7.564"/><path d="m159.034 507.735.005-.015 43.717-117.302"/></g></g></g><g style="fill:#fd4755;stroke:#000;stroke-width:8;stroke-linecap:round;stroke-linejoin:round;stroke-miterlimit:10"><path d="m139.759 77.43c0 26.946-11.884 48.794-26.542 48.794-14.66 0-26.543-21.848-26.543-48.794 0-26.945 11.883-48.792 26.543-48.792 14.658 0 26.542 21.847 26.542 48.792z"/><ellipse cx="113.216" cy="258.025" rx="49.289" ry="48.792"/><path d="m219.127 243.195c-10.931-4.163-26.282-18.738-26.282-44.761v-65.577c0-41.218-33.725-74.943-74.945-74.943h-9.367c-41.221 0-74.944 33.725-74.944 74.943v65.577c0 26.023-15.355 40.598-26.286 44.761-10.474 3.989 27.37 28.049 96.763 30.04 1.476.088 2.966.145 4.468.145h9.367c1.501 0 2.988-.057 4.468-.145 69.39-1.991 107.236-26.051 96.758-30.04z"/></g><g><path d="m314.252 209.232c-5.662 0-11.124-2.243-15.165-6.283l-71.952-71.95c-8.375-8.376-8.375-21.958 0-30.333 8.377-8.376 21.957-8.376 30.334 0l54.047 54.049 101.201-141.729c6.885-9.641 20.279-11.874 29.918-4.992 9.638 6.885 11.873 20.277 4.99 29.918l-115.917 162.335c-3.666 5.134-9.4 8.392-15.683 8.912-.591.049-1.186.073-1.773.073z" style="fill:#6fd7a3;stroke:#000;stroke-width:8;stroke-linecap:round;stroke-linejoin:round;stroke-miterlimit:10"/></g></g></g><g id="Light_Green" display="none"><g display="inline" fill="#0e2a47"><path d="m362.222 228.041c-.088-.01-.178-.013-.266-.022-.003 0-.007-.001-.01-.001-1.663-.178-3.361-.275-5.058-.275-6.499 0-12.74 1.28-18.048 3.7l-315.119 143.522c-7.185 3.27-11.912 8.413-13.051 14.154-.018.067-.028.137-.043.205-.01.056-.025.111-.035.167-.918 5.381 1.287 10.55 6.209 14.555l124.085 100.949c4.303 3.5 10.508 5.861 17.471 6.667.136.023.271.038.406.047 1.705.189 3.45.291 5.195.291 6.477 0 12.709-1.28 18.023-3.701l315.121-143.521c7.37-3.358 12.153-8.666 13.116-14.526.01-.058.014-.114.023-.172.009-.071.024-.142.029-.212.763-5.236-1.439-10.256-6.25-14.173l-124.083-100.948c-4.341-3.535-10.634-5.916-17.715-6.706zm-343.325 166.129 178.102.242-40.568 108.852c-4.26-.84-7.924-2.381-10.497-4.474l-124.085-100.949c-1.106-.901-2.297-2.146-2.952-3.671zm264.391-7.641-262.14-.356c1.47-1.478 3.476-2.83 5.887-3.927l315.122-143.523c3.854-1.757 8.559-2.782 13.377-2.946zm-77.756 7.895 80.268.109h.005c1.539 0 2.942-.883 3.607-2.271l22.122-46.16 188.37 7.225c-1.485 1.568-3.571 3.01-6.118 4.171l-315.122 143.521c-4.02 1.831-8.962 2.863-13.964 2.964zm109.769-56.184 48.797-101.822c4.391.83 8.163 2.395 10.789 4.534l124.083 100.946c1.063.866 2.204 2.049 2.87 3.497z"/><path d="m31.257 265.277c7.55 2.588 17.852 5.493 30.891 7.808 6.561 21.794 26.966 37.732 51.068 37.732s44.506-15.938 51.067-37.731c13.04-2.314 23.342-5.221 30.892-7.808 6.567-2.251 28.107-10.275 29.59-19.042.5-2.954-1.154-5.615-4.213-6.78-8.199-3.123-23.706-15.715-23.706-41.023v-65.577c0-35.28-23.266-65.224-55.259-75.308-4.457-19.471-15.335-32.911-28.371-32.911s-23.915 13.441-28.372 32.912c-31.99 10.087-55.254 40.029-55.254 75.308v65.577c0 25.307-15.509 37.9-23.71 41.023-3.059 1.165-4.712 3.826-4.212 6.779 1.483 8.767 23.023 16.791 29.589 19.041zm6.333-132.42c0-39.118 31.826-70.943 70.944-70.943h9.367c39.119 0 70.945 31.825 70.945 70.943v65.577c0 27.906 16.115 42.666 26.986 47.707-6.54 6.394-39.458 21.543-93.577 23.096-.041.001-.082.003-.123.005-1.558.093-2.942.138-4.231.138h-9.367c-1.293 0-2.677-.045-4.23-.138-.041-.002-.082-.004-.123-.005-54.114-1.553-87.033-16.7-93.579-23.095 10.829-5.005 26.988-19.767 26.988-47.708zm75.626-100.219c8.206 0 15.552 9.258 19.495 22.689-4.801-.916-9.748-1.414-14.811-1.414h-9.367c-5.064 0-10.012.499-14.814 1.414 3.945-13.431 11.291-22.689 19.497-22.689zm0 270.179c-19.087 0-35.443-11.745-42.098-28.307 9.666 1.365 20.585 2.368 32.771 2.72 1.688.1 3.208.148 4.644.148h9.367c1.432 0 2.951-.049 4.644-.147 12.185-.353 23.103-1.354 32.768-2.72-6.654 16.561-23.009 28.306-42.096 28.306z"/></g><g display="inline"><path d="m296.259 205.778c4.808 4.807 11.198 7.455 17.993 7.455.708 0 1.417-.03 2.103-.087 7.469-.618 14.251-4.472 18.608-10.574l115.917-162.336c8.151-11.418 5.495-27.342-5.921-35.498-4.342-3.1-9.449-4.738-14.769-4.738-8.212 0-15.961 3.985-20.729 10.662l-98.456 137.886-50.708-50.709c-4.808-4.807-11.198-7.454-17.996-7.454s-13.188 2.647-17.995 7.454c-4.807 4.806-7.454 11.196-7.454 17.994s2.647 13.188 7.453 17.996zm-41.618-102.283 54.047 54.049c.832.832 1.988 1.258 3.159 1.158 1.172-.097 2.242-.705 2.925-1.662l101.2-141.729c3.269-4.578 8.585-7.311 14.218-7.311 3.643 0 7.143 1.124 10.119 3.249 7.828 5.591 9.648 16.51 4.06 24.339l-115.917 162.334c-2.987 4.184-7.637 6.826-12.764 7.25-.469.04-.953.06-1.437.06-4.658 0-9.04-1.815-12.336-5.112l-71.952-71.95c-3.295-3.296-5.11-7.678-5.11-12.339s1.815-9.042 5.11-12.337c3.296-3.295 7.678-5.111 12.339-5.111s9.043 1.817 12.339 5.112z" fill="#69e781"/></g></g><g id="Light_Blue" display="none"><g display="inline" fill="#00f9ff"><path d="m362.222 228.041c-.088-.01-.178-.013-.266-.022-.003 0-.007-.001-.01-.001-1.663-.178-3.361-.275-5.058-.275-6.499 0-12.74 1.28-18.048 3.7l-315.119 143.522c-7.185 3.27-11.912 8.413-13.051 14.154-.018.067-.028.137-.043.205-.01.056-.025.111-.035.167-.918 5.381 1.287 10.55 6.209 14.555l124.085 100.949c4.303 3.5 10.508 5.861 17.471 6.667.136.023.271.038.406.047 1.705.189 3.45.291 5.195.291 6.477 0 12.709-1.28 18.023-3.701l315.121-143.521c7.37-3.358 12.153-8.666 13.116-14.526.01-.058.014-.114.023-.172.009-.071.024-.142.029-.212.763-5.236-1.439-10.256-6.25-14.173l-124.083-100.948c-4.341-3.535-10.634-5.916-17.715-6.706zm-343.325 166.129 178.102.242-40.568 108.852c-4.26-.84-7.924-2.381-10.497-4.474l-124.085-100.949c-1.106-.901-2.297-2.146-2.952-3.671zm264.391-7.641-262.14-.356c1.47-1.478 3.476-2.83 5.887-3.927l315.122-143.523c3.854-1.757 8.559-2.782 13.377-2.946zm-77.756 7.895 80.268.109h.005c1.539 0 2.942-.883 3.607-2.271l22.122-46.16 188.37 7.225c-1.485 1.568-3.571 3.01-6.118 4.171l-315.122 143.521c-4.02 1.831-8.962 2.863-13.964 2.964zm109.769-56.184 48.797-101.822c4.391.83 8.163 2.395 10.789 4.534l124.083 100.946c1.063.866 2.204 2.049 2.87 3.497z"/><path d="m31.257 265.277c7.55 2.588 17.852 5.493 30.891 7.808 6.561 21.794 26.966 37.732 51.068 37.732s44.506-15.938 51.067-37.731c13.04-2.314 23.342-5.221 30.892-7.808 6.567-2.251 28.107-10.275 29.59-19.042.5-2.954-1.154-5.615-4.213-6.78-8.199-3.123-23.706-15.715-23.706-41.023v-65.577c0-35.28-23.266-65.224-55.259-75.308-4.457-19.471-15.335-32.911-28.371-32.911s-23.915 13.441-28.372 32.912c-31.99 10.087-55.254 40.029-55.254 75.308v65.577c0 25.307-15.509 37.9-23.71 41.023-3.059 1.165-4.712 3.826-4.212 6.779 1.483 8.767 23.023 16.791 29.589 19.041zm6.333-132.42c0-39.118 31.826-70.943 70.944-70.943h9.367c39.119 0 70.945 31.825 70.945 70.943v65.577c0 27.906 16.115 42.666 26.986 47.707-6.54 6.394-39.458 21.543-93.577 23.096-.041.001-.082.003-.123.005-1.558.093-2.942.138-4.231.138h-9.367c-1.293 0-2.677-.045-4.23-.138-.041-.002-.082-.004-.123-.005-54.114-1.553-87.033-16.7-93.579-23.095 10.829-5.005 26.988-19.767 26.988-47.708zm75.626-100.219c8.206 0 15.552 9.258 19.495 22.689-4.801-.916-9.748-1.414-14.811-1.414h-9.367c-5.064 0-10.012.499-14.814 1.414 3.945-13.431 11.291-22.689 19.497-22.689zm0 270.179c-19.087 0-35.443-11.745-42.098-28.307 9.666 1.365 20.585 2.368 32.771 2.72 1.688.1 3.208.148 4.644.148h9.367c1.432 0 2.951-.049 4.644-.147 12.185-.353 23.103-1.354 32.768-2.72-6.654 16.561-23.009 28.306-42.096 28.306z"/></g><g display="inline"><path d="m296.259 205.778c4.808 4.807 11.198 7.455 17.993 7.455.708 0 1.417-.03 2.103-.087 7.469-.618 14.251-4.472 18.608-10.574l115.917-162.336c8.151-11.418 5.495-27.342-5.921-35.498-4.342-3.1-9.449-4.738-14.769-4.738-8.212 0-15.961 3.985-20.729 10.662l-98.456 137.886-50.708-50.709c-4.808-4.807-11.198-7.454-17.996-7.454s-13.188 2.647-17.995 7.454c-4.807 4.806-7.454 11.196-7.454 17.994s2.647 13.188 7.453 17.996zm-41.618-102.283 54.047 54.049c.832.832 1.988 1.258 3.159 1.158 1.172-.097 2.242-.705 2.925-1.662l101.2-141.729c3.269-4.578 8.585-7.311 14.218-7.311 3.643 0 7.143 1.124 10.119 3.249 7.828 5.591 9.648 16.51 4.06 24.339l-115.917 162.334c-2.987 4.184-7.637 6.826-12.764 7.25-.469.04-.953.06-1.437.06-4.658 0-9.04-1.815-12.336-5.112l-71.952-71.95c-3.295-3.296-5.11-7.678-5.11-12.339s1.815-9.042 5.11-12.337c3.296-3.295 7.678-5.111 12.339-5.111s9.043 1.817 12.339 5.112z" fill="#09176b"/></g></g><g id="Shadow" display="none"><g display="inline"><g><g id="XMLID_161_"><g fill="#ffd15b"><path d="m361.772 232.016-52.708 109.988-23.26 48.529-83.049-.115-188.223-.254c.748-4.388 4.464-8.655 10.844-11.559l315.12-143.522c6.377-2.907 14.15-3.873 21.276-3.067z"/><path d="m377.411 237.849 124.085 100.948c3.905 3.18 5.431 7.012 4.78 10.771l-197.211-7.564 52.708-109.988c6.1.68 11.733 2.653 15.638 5.833z"/><path d="m309.065 342.004 197.211 7.564c-.722 4.395-4.458 8.664-10.833 11.569l-315.12 143.521c-6.38 2.907-14.167 3.884-21.284 3.062l43.718-117.302 83.049.115z"/><path d="m202.756 390.418-43.717 117.302c-6.119-.677-11.725-2.65-15.629-5.827l-124.086-100.95c-3.905-3.178-5.431-7.024-4.791-10.779z"/></g></g></g><g fill="#fd4755"><path d="m139.759 77.43c0 26.946-11.884 48.794-26.542 48.794-14.66 0-26.543-21.848-26.543-48.794 0-26.945 11.883-48.792 26.543-48.792 14.658 0 26.542 21.847 26.542 48.792z"/><ellipse cx="113.216" cy="258.025" rx="49.289" ry="48.792"/><path d="m219.127 243.195c-10.931-4.163-26.282-18.738-26.282-44.761v-65.577c0-41.218-33.725-74.943-74.945-74.943h-9.367c-41.221 0-74.944 33.725-74.944 74.943v65.577c0 26.023-15.355 40.598-26.286 44.761-10.474 3.989 27.37 28.049 96.763 30.04 1.476.088 2.966.145 4.468.145h9.367c1.501 0 2.988-.057 4.468-.145 69.39-1.991 107.236-26.051 96.758-30.04z"/></g><g><path d="m314.252 209.232c-5.662 0-11.124-2.243-15.165-6.283l-71.952-71.95c-8.375-8.376-8.375-21.958 0-30.333 8.377-8.376 21.957-8.376 30.334 0l54.047 54.049 101.201-141.729c6.885-9.641 20.279-11.874 29.918-4.992 9.638 6.885 11.873 20.277 4.99 29.918l-115.917 162.335c-3.666 5.134-9.4 8.392-15.683 8.912-.591.049-1.186.073-1.773.073z" fill="#6fd7a3"/></g></g></g><g id="Base" display="none"><g fill="#fee45a"><path d="m47.076 374.22 302.835-137.927c.833-.38 1.723-.721 2.656-1.02l-66.744 139.272z" display="inline"/><path d="m328.782 326.556 43.732-91.254c1.982.673 3.663 1.542 4.897 2.547l116.84 95.054z" display="inline"/><path d="m214.684 392.448 76.791.104c3.456 0 6.642-2.007 8.129-5.112l20.702-43.197 166.824 6.398-304.857 138.847c-1.317.6-2.77 1.102-4.313 1.495z" display="inline"/><path d="m159.026 490.247c-1.704-.637-3.158-1.424-4.256-2.316l-117.662-95.725 158.376.216z" display="inline"/></g><path d="m107.005 42.25c3.349-7.153 7.756-11.593 11.893-11.593 4.136 0 8.542 4.44 11.892 11.592-2.409-.21-4.816-.316-7.207-.316h-9.367c-2.392 0-4.8.106-7.211.317z" display="inline" fill="#fe646f"/><path d="m118.898 290.837c-13.495 0-25.73-6.521-33.14-17.165 7.674.813 15.575 1.341 23.595 1.574 1.762.103 3.354.152 4.863.152h9.367c1.499 0 3.09-.05 4.861-.151 8.023-.234 15.923-.762 23.592-1.574-7.41 10.644-19.644 17.164-33.138 17.164z" display="inline" fill="#fe646f"/><path d="m114.216 257.398c-1.194 0-2.48-.042-3.932-.129l-.303-.013c-43.302-1.242-72.108-11.245-84.349-17.792 11.928-8.513 22.639-24.411 22.639-48.012v-65.577c0-36.361 29.583-65.943 65.944-65.943h9.367c36.362 0 65.945 29.582 65.945 65.943v65.577c0 23.58 10.716 39.483 22.646 48.008-12.233 6.547-41.042 16.554-84.381 17.797l-.211.008c-1.521.091-2.809.133-3.999.133z" display="inline" fill="#fe646f"/><path d="m319.934 193.252c-3.323 0-6.449-1.295-8.801-3.647l-71.952-71.95c-2.351-2.351-3.646-5.478-3.646-8.803s1.294-6.451 3.646-8.801c2.352-2.352 5.478-3.646 8.803-3.646s6.452 1.295 8.804 3.646l54.046 54.049c1.677 1.676 3.994 2.637 6.356 2.637.254 0 .51-.011.766-.033 2.626-.218 5.025-1.581 6.566-3.737l101.201-141.731c2.333-3.266 6.127-5.216 10.149-5.216 2.595 0 5.09.802 7.214 2.318 5.583 3.988 6.883 11.778 2.896 17.365l-115.918 162.333c-2.131 2.985-5.451 4.871-9.107 5.173-.339.029-.681.043-1.023.043z" display="inline" fill="#9be69d"/></g><g id="Flat"><g><g><g><g id="XMLID_225_"><g fill="#ffd15b"><path d="m363.451 231.635-53.544 111.734-23.629 49.3-84.367-.117-191.21-.258c.76-4.458 4.535-8.793 11.016-11.742l320.122-145.801c6.476-2.953 14.373-3.935 21.612-3.116z"/><path d="m379.338 237.561 126.054 102.551c3.967 3.229 5.518 7.123 4.856 10.942l-200.341-7.685 53.544-111.734c6.198.691 11.921 2.696 15.887 5.926z"/><path d="m309.907 343.369 200.341 7.685c-.734 4.464-4.529 8.802-11.005 11.753l-320.121 145.798c-6.481 2.953-14.392 3.945-21.622 3.109l44.412-119.163 84.367.117z"/><path d="m201.911 392.552-44.411 119.163c-6.216-.688-11.911-2.692-15.877-5.919l-126.056-102.552c-3.967-3.229-5.517-7.136-4.866-10.95z"/></g></g></g><g fill="#fd4755"><path d="m137.914 74.596c0 27.374-12.072 49.568-26.964 49.568-14.893 0-26.964-22.194-26.964-49.568 0-27.373 12.072-49.567 26.964-49.567 14.891 0 26.964 22.194 26.964 49.567z"/><ellipse cx="110.949" cy="258.058" rx="50.071" ry="49.566"/><path d="m218.542 242.992c-11.104-4.229-26.699-19.035-26.699-45.472v-66.618c0-41.873-34.26-76.133-76.134-76.133h-9.516c-41.875 0-76.134 34.26-76.134 76.133v66.618c0 26.437-15.599 41.242-26.704 45.472-10.64 4.052 27.805 28.495 98.299 30.516 1.499.09 3.013.146 4.539.146h9.516c1.525 0 3.036-.057 4.539-.146 70.491-2.022 108.939-26.464 98.294-30.516z"/></g><g><path d="m315.177 208.49c-5.752 0-11.301-2.279-15.406-6.383l-73.094-73.092c-8.509-8.51-8.509-22.307 0-30.814 8.51-8.509 22.305-8.509 30.816 0l54.905 54.906 102.806-143.979c6.995-9.794 20.602-12.062 30.393-5.071 9.791 6.994 12.061 20.599 5.069 30.393l-117.757 164.912c-3.724 5.216-9.549 8.525-15.932 9.053-.6.051-1.204.075-1.8.075z" fill="#6fd7a3"/></g></g><g fill="#fee45a"><path d="m43.76 376.097 307.642-140.117c.846-.386 1.75-.732 2.698-1.036l-67.803 141.483z"/><path d="m329.938 327.676 44.426-92.703c2.014.684 3.721 1.566 4.975 2.587l118.695 96.563z"/><path d="m214.028 394.614 78.009.106c3.51 0 6.747-2.039 8.258-5.194l21.03-43.883 169.472 6.5-309.694 141.051c-1.338.609-2.814 1.119-4.381 1.519z"/><path d="m157.487 493.965c-1.731-.646-3.208-1.446-4.324-2.353l-119.529-97.244 160.891.219z"/></g><path d="m104.641 38.857c3.402-7.267 7.879-11.777 12.081-11.777s8.678 4.51 12.081 11.776c-2.448-.214-4.893-.322-7.322-.322h-9.515c-2.431.001-4.877.109-7.325.323z" fill="#fe646f"/><path d="m116.722 291.39c-13.709 0-26.138-6.624-33.666-17.438 7.796.827 15.822 1.362 23.97 1.6 1.79.104 3.407.154 4.94.154h9.515c1.523 0 3.139-.05 4.938-.153 8.15-.238 16.176-.773 23.967-1.6-7.528 10.814-19.956 17.437-33.664 17.437z" fill="#fe646f"/><path d="m111.965 257.421c-1.213 0-2.52-.043-3.994-.131l-.308-.014c-43.989-1.262-73.252-11.423-85.688-18.074 12.118-8.648 22.999-24.798 22.999-48.773v-66.618c0-36.938 30.052-66.99 66.991-66.99h9.515c36.939 0 66.992 30.052 66.992 66.99v66.618c0 23.954 10.886 40.11 23.006 48.77-12.427 6.651-41.693 16.816-85.721 18.079l-.214.009c-1.545.092-2.853.135-4.063.135h-9.515z" fill="#fe646f"/><path d="m320.948 192.256c-3.375 0-6.551-1.316-8.941-3.705l-73.094-73.092c-2.388-2.389-3.704-5.564-3.704-8.943 0-3.377 1.315-6.553 3.703-8.941 2.389-2.389 5.565-3.704 8.943-3.704s6.554 1.315 8.944 3.704l54.904 54.907c1.704 1.703 4.057 2.679 6.457 2.679.258 0 .519-.011.778-.034 2.668-.221 5.104-1.605 6.67-3.796l102.809-143.98c2.37-3.318 6.224-5.299 10.311-5.299 2.637 0 5.171.814 7.329 2.354 5.672 4.052 6.992 11.965 2.941 17.641l-117.758 164.911c-2.166 3.033-5.538 4.948-9.251 5.255-.345.029-.693.043-1.041.043z" fill="#9be69d"/></g></g><g id="Line" display="none"><g style="display:inline;fill:none;stroke:#000;stroke-width:8;stroke-linecap:round;stroke-linejoin:round;stroke-miterlimit:10"><path d="m361.772 232.016c6.101.68 11.734 2.653 15.639 5.833l124.085 100.948c3.905 3.18 5.431 7.012 4.78 10.771-.722 4.395-4.458 8.664-10.833 11.569l-315.12 143.521c-6.38 2.907-14.167 3.884-21.284 3.062-6.119-.677-11.725-2.65-15.629-5.827l-124.086-100.95c-3.905-3.178-5.431-7.024-4.791-10.779.748-4.388 4.464-8.655 10.844-11.559l315.12-143.522c6.376-2.907 14.149-3.873 21.275-3.067z"/><path d="m14.52 390.169.014-.005 188.222.254 83.049.115 23.26-48.529 52.707-109.988.016-.01"/><path d="m506.295 349.574-.019-.006-197.211-7.564"/><path d="m159.034 507.735.005-.015 43.717-117.302"/></g></g><g id="Blue" display="none"><g display="inline"><g fill="#9bc9ff"><path d="m27.035 382.246c-2.411 1.097-4.417 2.449-5.887 3.927l262.14.356 72.246-150.753c-4.818.164-9.523 1.189-13.377 2.946z"/><path d="m498.97 341.898-124.083-100.946c-2.626-2.139-6.397-3.704-10.789-4.534l-48.797 101.822 186.539 7.155c-.666-1.448-1.806-2.63-2.87-3.497z"/><path d="m493.785 357.497c2.547-1.161 4.633-2.603 6.118-4.171l-188.37-7.225-22.122 46.16c-.665 1.389-2.068 2.271-3.607 2.271-.002 0-.003 0-.005 0l-80.268-.109-40.831 109.559c5.002-.101 9.944-1.133 13.964-2.964z"/><path d="m156.431 503.264 40.568-108.852-178.102-.242c.655 1.525 1.846 2.771 2.952 3.671l124.085 100.949c2.573 2.093 6.237 3.634 10.497 4.474z"/></g><path d="m108.534 53.914h9.367c5.063 0 10.01.498 14.811 1.414-3.943-13.431-11.289-22.689-19.495-22.689-8.207 0-15.553 9.259-19.496 22.69 4.801-.917 9.749-1.415 14.813-1.415z" fill="#57a4ff"/><path d="m122.545 277.231c-1.693.099-3.212.147-4.644.147h-9.367c-1.436 0-2.956-.049-4.644-.148-12.186-.352-23.106-1.354-32.771-2.72 6.654 16.562 23.01 28.307 42.098 28.307 19.087 0 35.442-11.745 42.096-28.306-9.665 1.366-20.584 2.368-32.768 2.72z" fill="#57a4ff"/><path d="m10.602 246.142c6.546 6.395 39.465 21.542 93.579 23.095.041.001.082.003.123.005 1.553.093 2.937.138 4.23.138h9.367c1.289 0 2.673-.045 4.231-.138.041-.002.082-.004.123-.005 54.12-1.553 87.038-16.702 93.577-23.096-10.871-5.042-26.986-19.801-26.986-47.707v-65.577c0-39.118-31.826-70.943-70.945-70.943h-9.367c-39.119 0-70.944 31.825-70.944 70.943v65.577c0 27.941-16.159 42.703-26.988 47.708z" fill="#57a4ff"/><path d="m224.853 115.832c0 4.661 1.815 9.043 5.11 12.339l71.952 71.95c3.297 3.296 7.678 5.112 12.336 5.112.484 0 .967-.02 1.437-.06 5.126-.424 9.776-3.067 12.764-7.25l115.918-162.336c5.588-7.829 3.768-18.748-4.06-24.339-2.977-2.124-6.477-3.248-10.12-3.248-5.634 0-10.949 2.733-14.219 7.311l-101.2 141.729c-.684.957-1.753 1.565-2.925 1.662-1.17.101-2.327-.326-3.159-1.158l-54.047-54.049c-3.296-3.295-7.678-5.111-12.339-5.111s-9.043 1.815-12.339 5.111c-3.294 3.295-5.109 7.676-5.109 12.337z" fill="#9bc9ff"/></g></g><g id="Hilight" display="none"><g display="inline"><g fill="#0e2a47"><path d="m19.413 386.332c-2.489 1.132-4.56 2.528-6.077 4.054l270.605.368 74.579-155.622c-4.974.169-9.831 1.228-13.809 3.042z"/><path d="m506.589 344.682-128.091-104.207c-2.711-2.208-6.604-3.823-11.137-4.68l-50.373 105.111 192.563 7.387c-.687-1.496-1.864-2.717-2.962-3.611z"/><path d="m501.236 360.784c2.629-1.199 4.782-2.687 6.315-4.306l-194.453-7.458-22.836 47.65c-.687 1.434-2.135 2.346-3.723 2.346-.002 0-.004 0-.006 0l-82.86-.113-42.15 113.097c5.164-.104 10.266-1.169 14.415-3.06z"/><path d="m152.987 511.258 41.878-112.366-183.854-.25c.676 1.574 1.905 2.859 3.048 3.789l128.092 104.209c2.657 2.16 6.439 3.751 10.836 4.618z"/><path d="m103.544 47.396h9.669c5.227 0 10.333.514 15.289 1.459-4.071-13.865-11.654-23.422-20.125-23.422-8.472 0-16.055 9.558-20.126 23.422 4.957-.944 10.064-1.459 15.293-1.459z"/></g><path d="m118.007 277.926c-1.747.103-3.316.152-4.794.152h-9.669c-1.482 0-3.051-.05-4.794-.153-12.58-.362-23.853-1.397-33.83-2.808 6.869 17.097 23.753 29.222 43.457 29.222 19.703 0 36.587-12.125 43.456-29.221-9.977 1.41-21.248 2.445-33.826 2.808z" fill="#69e781"/><path d="m2.449 245.833c6.757 6.601 40.739 22.238 96.601 23.84.043.001.085.003.127.005 1.604.096 3.032.143 4.367.143h9.669c1.331 0 2.759-.047 4.367-.143.043-.002.085-.004.127-.005 55.867-1.603 89.849-17.242 96.6-23.842-11.223-5.204-27.857-20.44-27.857-49.248v-67.694c0-40.381-32.854-73.234-73.236-73.234h-9.669c-40.382 0-73.235 32.853-73.235 73.234v67.694c-.001 28.844-16.682 44.083-27.861 49.25z" fill="#69e781"/><path d="m223.619 111.314c0 4.812 1.873 9.335 5.275 12.737l74.275 74.273c3.403 3.403 7.927 5.277 12.735 5.277.499 0 .998-.021 1.482-.062 5.292-.438 10.093-3.166 13.176-7.485l119.663-167.575c5.77-8.082 3.89-19.353-4.19-25.125-3.074-2.194-6.686-3.354-10.447-3.354-5.815 0-11.303 2.821-14.678 7.547l-104.469 146.306c-.706.988-1.81 1.616-3.02 1.716-1.208.104-2.402-.336-3.261-1.195l-55.793-55.794c-3.401-3.402-7.926-5.276-12.737-5.276s-9.335 1.874-12.737 5.276c-3.401 3.4-5.274 7.923-5.274 12.734z" fill="#69e781"/></g></g><g id="Glyph" display="none"><g display="inline"><path d="m19.413 386.332c-2.489 1.132-4.56 2.528-6.077 4.054l270.605.368 74.579-155.622c-4.974.169-9.831 1.228-13.809 3.042z"/><path d="m506.589 344.682-128.091-104.207c-2.711-2.208-6.604-3.823-11.137-4.68l-50.373 105.111 192.563 7.387c-.687-1.496-1.864-2.717-2.962-3.611z"/><path d="m501.236 360.784c2.629-1.199 4.782-2.687 6.315-4.306l-194.453-7.458-22.836 47.65c-.687 1.434-2.135 2.346-3.723 2.346-.002 0-.004 0-.006 0l-82.86-.113-42.15 113.097c5.164-.104 10.266-1.169 14.415-3.06z"/><path d="m152.987 511.258 41.878-112.366-183.854-.25c.676 1.574 1.905 2.859 3.048 3.789l128.092 104.209c2.657 2.16 6.439 3.751 10.836 4.618z"/><path d="m103.544 47.396h9.669c5.227 0 10.333.514 15.289 1.459-4.071-13.865-11.654-23.422-20.125-23.422-8.472 0-16.055 9.558-20.126 23.422 4.957-.944 10.064-1.459 15.293-1.459z"/><path d="m118.007 277.926c-1.747.103-3.316.152-4.794.152h-9.669c-1.482 0-3.051-.05-4.794-.153-12.58-.362-23.853-1.397-33.83-2.808 6.869 17.097 23.753 29.222 43.457 29.222 19.703 0 36.587-12.125 43.456-29.221-9.977 1.41-21.248 2.445-33.826 2.808z"/><path d="m2.449 245.833c6.757 6.601 40.739 22.238 96.601 23.84.043.001.085.003.127.005 1.604.096 3.032.143 4.367.143h9.669c1.331 0 2.759-.047 4.367-.143.043-.002.085-.004.127-.005 55.867-1.603 89.849-17.242 96.6-23.842-11.223-5.204-27.857-20.44-27.857-49.248v-67.694c0-40.381-32.854-73.234-73.236-73.234h-9.669c-40.382 0-73.235 32.853-73.235 73.234v67.694c-.001 28.844-16.682 44.083-27.861 49.25z"/><path d="m223.619 111.314c0 4.812 1.873 9.335 5.275 12.737l74.275 74.273c3.403 3.403 7.927 5.277 12.735 5.277.499 0 .998-.021 1.482-.062 5.292-.438 10.093-3.166 13.176-7.485l119.663-167.575c5.77-8.082 3.89-19.353-4.19-25.125-3.074-2.194-6.686-3.354-10.447-3.354-5.815 0-11.303 2.821-14.678 7.547l-104.469 146.306c-.706.988-1.81 1.616-3.02 1.716-1.208.104-2.402-.336-3.261-1.195l-55.793-55.794c-3.401-3.402-7.926-5.276-12.737-5.276s-9.335 1.874-12.737 5.276c-3.401 3.4-5.274 7.923-5.274 12.734z"/></g></g><g id="Glyph_Gradient" display="none"><path d="m344.712 238.174c3.978-1.814 8.835-2.872 13.809-3.042l-74.579 155.622-270.605-.368c1.518-1.525 3.588-2.922 6.077-4.054zm161.877 106.508-128.091-104.207c-2.711-2.208-6.604-3.823-11.137-4.68l-50.373 105.111 192.563 7.387c-.687-1.496-1.864-2.717-2.962-3.611zm-5.353 16.102c2.629-1.199 4.782-2.687 6.315-4.306l-194.453-7.458-22.836 47.65c-.687 1.434-2.135 2.346-3.723 2.346-.002 0-.004 0-.006 0l-82.86-.113-42.15 113.097c5.164-.104 10.266-1.169 14.415-3.06zm-348.249 150.474 41.878-112.366-183.854-.25c.676 1.574 1.905 2.859 3.048 3.789l128.092 104.209c2.657 2.16 6.439 3.751 10.836 4.618zm-49.443-463.862h9.669c5.227 0 10.333.514 15.289 1.459-4.071-13.865-11.654-23.422-20.125-23.422-8.472 0-16.055 9.558-20.126 23.422 4.957-.944 10.064-1.459 15.293-1.459zm14.463 230.53c-1.747.103-3.316.152-4.794.152h-9.669c-1.482 0-3.051-.05-4.794-.153-12.58-.362-23.853-1.397-33.83-2.808 6.869 17.097 23.753 29.222 43.457 29.222 19.703 0 36.587-12.125 43.456-29.221-9.977 1.41-21.248 2.445-33.826 2.808zm-115.558-32.093c6.757 6.601 40.739 22.238 96.601 23.84.043.001.085.003.127.005 1.604.096 3.032.143 4.367.143h9.669c1.331 0 2.759-.047 4.367-.143.043-.002.085-.004.127-.005 55.867-1.603 89.849-17.242 96.6-23.842-11.223-5.204-27.857-20.44-27.857-49.248v-67.694c0-40.381-32.854-73.234-73.236-73.234h-9.669c-40.382 0-73.235 32.853-73.235 73.234v67.694c-.001 28.844-16.682 44.083-27.861 49.25zm221.17-134.519c0 4.812 1.873 9.335 5.275 12.737l74.275 74.273c3.403 3.403 7.927 5.277 12.735 5.277.499 0 .998-.021 1.482-.062 5.292-.438 10.093-3.166 13.176-7.485l119.663-167.575c5.77-8.082 3.89-19.353-4.19-25.125-3.074-2.194-6.686-3.354-10.447-3.354-5.815 0-11.303 2.821-14.678 7.547l-104.469 146.306c-.706.988-1.81 1.616-3.02 1.716-1.208.104-2.402-.336-3.261-1.195l-55.793-55.794c-3.401-3.402-7.926-5.276-12.737-5.276s-9.335 1.874-12.737 5.276c-3.401 3.4-5.274 7.923-5.274 12.734z" display="inline" fill="url(#SVGID_1_)"/></g><g id="Outline" display="none"><path d="m362.222 228.041c-.088-.01-.178-.013-.266-.022-.003 0-.007-.001-.01-.001-1.663-.178-3.361-.275-5.058-.275-6.499 0-12.74 1.28-18.048 3.7l-315.119 143.522c-7.185 3.27-11.912 8.413-13.051 14.154-.018.067-.028.137-.043.205-.01.056-.025.111-.035.167-.918 5.381 1.287 10.55 6.209 14.555l124.085 100.949c4.303 3.5 10.508 5.861 17.471 6.667.136.023.271.038.406.047 1.705.189 3.45.291 5.195.291 6.477 0 12.709-1.28 18.023-3.701l315.121-143.521c7.37-3.358 12.153-8.666 13.116-14.526.01-.058.014-.114.023-.172.009-.071.024-.142.029-.212.763-5.236-1.439-10.256-6.25-14.173l-124.083-100.948c-4.341-3.535-10.634-5.916-17.715-6.706zm-343.325 166.129 178.102.242-40.568 108.852c-4.26-.84-7.924-2.381-10.497-4.474l-124.085-100.949c-1.106-.901-2.297-2.146-2.952-3.671zm264.391-7.641-262.14-.356c1.47-1.478 3.476-2.83 5.887-3.927l315.122-143.523c3.854-1.757 8.559-2.782 13.377-2.946zm-77.756 7.895 80.268.109h.005c1.539 0 2.942-.883 3.607-2.271l22.122-46.16 188.37 7.225c-1.485 1.568-3.571 3.01-6.118 4.171l-315.122 143.521c-4.02 1.831-8.962 2.863-13.964 2.964zm109.769-56.184 48.797-101.822c4.391.83 8.163 2.395 10.789 4.534l124.083 100.946c1.063.866 2.204 2.049 2.87 3.497z" display="inline"/><path d="m31.257 265.277c7.55 2.588 17.852 5.493 30.891 7.808 6.561 21.794 26.966 37.732 51.068 37.732s44.506-15.938 51.067-37.731c13.04-2.314 23.342-5.221 30.892-7.808 6.567-2.251 28.107-10.275 29.59-19.042.5-2.954-1.154-5.615-4.213-6.78-8.199-3.123-23.706-15.715-23.706-41.023v-65.577c0-35.28-23.266-65.224-55.259-75.308-4.457-19.471-15.335-32.911-28.371-32.911s-23.915 13.441-28.372 32.912c-31.99 10.087-55.254 40.029-55.254 75.308v65.577c0 25.307-15.509 37.9-23.71 41.023-3.059 1.165-4.712 3.826-4.212 6.779 1.483 8.767 23.023 16.791 29.589 19.041zm6.333-132.42c0-39.118 31.826-70.943 70.944-70.943h9.367c39.119 0 70.945 31.825 70.945 70.943v65.577c0 27.906 16.115 42.666 26.986 47.707-6.54 6.394-39.458 21.543-93.577 23.096-.041.001-.082.003-.123.005-1.558.093-2.942.138-4.231.138h-9.367c-1.293 0-2.677-.045-4.23-.138-.041-.002-.082-.004-.123-.005-54.114-1.553-87.033-16.7-93.579-23.095 10.829-5.005 26.988-19.767 26.988-47.708zm75.626-100.219c8.206 0 15.552 9.258 19.495 22.689-4.801-.916-9.748-1.414-14.811-1.414h-9.367c-5.064 0-10.012.499-14.814 1.414 3.945-13.431 11.291-22.689 19.497-22.689zm0 270.179c-19.087 0-35.443-11.745-42.098-28.307 9.666 1.365 20.585 2.368 32.771 2.72 1.688.1 3.208.148 4.644.148h9.367c1.432 0 2.951-.049 4.644-.147 12.185-.353 23.103-1.354 32.768-2.72-6.654 16.561-23.009 28.306-42.096 28.306z" display="inline"/><path d="m296.259 205.778c4.808 4.807 11.198 7.455 17.993 7.455.708 0 1.417-.03 2.103-.087 7.469-.618 14.251-4.472 18.608-10.574l115.917-162.336c8.151-11.418 5.495-27.342-5.921-35.498-4.342-3.1-9.449-4.738-14.769-4.738-8.212 0-15.961 3.985-20.729 10.662l-98.456 137.886-50.708-50.709c-4.808-4.807-11.198-7.454-17.996-7.454s-13.188 2.647-17.995 7.454c-4.807 4.806-7.454 11.196-7.454 17.994s2.647 13.188 7.453 17.996zm-41.618-102.283 54.047 54.049c.832.832 1.988 1.258 3.159 1.158 1.172-.097 2.242-.705 2.925-1.662l101.2-141.729c3.269-4.578 8.585-7.311 14.218-7.311 3.643 0 7.143 1.124 10.119 3.249 7.828 5.591 9.648 16.51 4.06 24.339l-115.917 162.334c-2.987 4.184-7.637 6.826-12.764 7.25-.469.04-.953.06-1.437.06-4.658 0-9.04-1.815-12.336-5.112l-71.952-71.95c-3.295-3.296-5.11-7.678-5.11-12.339s1.815-9.042 5.11-12.337c3.296-3.295 7.678-5.111 12.339-5.111s9.043 1.817 12.339 5.112z" display="inline"/></g><g id="Outline_Blue" display="none" fill="#09176b"><path d="m362.222 228.041c-.088-.01-.178-.013-.266-.022-.003 0-.007-.001-.01-.001-1.663-.178-3.361-.275-5.058-.275-6.499 0-12.74 1.28-18.048 3.7l-315.119 143.522c-7.185 3.27-11.912 8.413-13.051 14.154-.018.067-.028.137-.043.205-.01.056-.025.111-.035.167-.918 5.381 1.287 10.55 6.209 14.555l124.085 100.949c4.303 3.5 10.508 5.861 17.471 6.667.136.023.271.038.406.047 1.705.189 3.45.291 5.195.291 6.477 0 12.709-1.28 18.023-3.701l315.121-143.521c7.37-3.358 12.153-8.666 13.116-14.526.01-.058.014-.114.023-.172.009-.071.024-.142.029-.212.763-5.236-1.439-10.256-6.25-14.173l-124.083-100.948c-4.341-3.535-10.634-5.916-17.715-6.706zm-343.325 166.129 178.102.242-40.568 108.852c-4.26-.84-7.924-2.381-10.497-4.474l-124.085-100.949c-1.106-.901-2.297-2.146-2.952-3.671zm264.391-7.641-262.14-.356c1.47-1.478 3.476-2.83 5.887-3.927l315.122-143.523c3.854-1.757 8.559-2.782 13.377-2.946zm-77.756 7.895 80.268.109h.005c1.539 0 2.942-.883 3.607-2.271l22.122-46.16 188.37 7.225c-1.485 1.568-3.571 3.01-6.118 4.171l-315.122 143.521c-4.02 1.831-8.962 2.863-13.964 2.964zm109.769-56.184 48.797-101.822c4.391.83 8.163 2.395 10.789 4.534l124.083 100.946c1.063.866 2.204 2.049 2.87 3.497z" display="inline"/><path d="m31.257 265.277c7.55 2.588 17.852 5.493 30.891 7.808 6.561 21.794 26.966 37.732 51.068 37.732s44.506-15.938 51.067-37.731c13.04-2.314 23.342-5.221 30.892-7.808 6.567-2.251 28.107-10.275 29.59-19.042.5-2.954-1.154-5.615-4.213-6.78-8.199-3.123-23.706-15.715-23.706-41.023v-65.577c0-35.28-23.266-65.224-55.259-75.308-4.457-19.471-15.335-32.911-28.371-32.911s-23.915 13.441-28.372 32.912c-31.99 10.087-55.254 40.029-55.254 75.308v65.577c0 25.307-15.509 37.9-23.71 41.023-3.059 1.165-4.712 3.826-4.212 6.779 1.483 8.767 23.023 16.791 29.589 19.041zm6.333-132.42c0-39.118 31.826-70.943 70.944-70.943h9.367c39.119 0 70.945 31.825 70.945 70.943v65.577c0 27.906 16.115 42.666 26.986 47.707-6.54 6.394-39.458 21.543-93.577 23.096-.041.001-.082.003-.123.005-1.558.093-2.942.138-4.231.138h-9.367c-1.293 0-2.677-.045-4.23-.138-.041-.002-.082-.004-.123-.005-54.114-1.553-87.033-16.7-93.579-23.095 10.829-5.005 26.988-19.767 26.988-47.708zm75.626-100.219c8.206 0 15.552 9.258 19.495 22.689-4.801-.916-9.748-1.414-14.811-1.414h-9.367c-5.064 0-10.012.499-14.814 1.414 3.945-13.431 11.291-22.689 19.497-22.689zm0 270.179c-19.087 0-35.443-11.745-42.098-28.307 9.666 1.365 20.585 2.368 32.771 2.72 1.688.1 3.208.148 4.644.148h9.367c1.432 0 2.951-.049 4.644-.147 12.185-.353 23.103-1.354 32.768-2.72-6.654 16.561-23.009 28.306-42.096 28.306z" display="inline"/><path d="m296.259 205.778c4.808 4.807 11.198 7.455 17.993 7.455.708 0 1.417-.03 2.103-.087 7.469-.618 14.251-4.472 18.608-10.574l115.917-162.336c8.151-11.418 5.495-27.342-5.921-35.498-4.342-3.1-9.449-4.738-14.769-4.738-8.212 0-15.961 3.985-20.729 10.662l-98.456 137.886-50.708-50.709c-4.808-4.807-11.198-7.454-17.996-7.454s-13.188 2.647-17.995 7.454c-4.807 4.806-7.454 11.196-7.454 17.994s2.647 13.188 7.453 17.996zm-41.618-102.283 54.047 54.049c.832.832 1.988 1.258 3.159 1.158 1.172-.097 2.242-.705 2.925-1.662l101.2-141.729c3.269-4.578 8.585-7.311 14.218-7.311 3.643 0 7.143 1.124 10.119 3.249 7.828 5.591 9.648 16.51 4.06 24.339l-115.917 162.334c-2.987 4.184-7.637 6.826-12.764 7.25-.469.04-.953.06-1.437.06-4.658 0-9.04-1.815-12.336-5.112l-71.952-71.95c-3.295-3.296-5.11-7.678-5.11-12.339s1.815-9.042 5.11-12.337c3.296-3.295 7.678-5.111 12.339-5.111s9.043 1.817 12.339 5.112z" display="inline"/></g><g id="Gradient" display="none"><path d="m362.222 228.041c-.088-.01-.178-.013-.266-.022-.003 0-.007-.001-.01-.001-1.663-.178-3.361-.275-5.058-.275-6.499 0-12.74 1.28-18.048 3.7l-315.119 143.522c-7.185 3.27-11.912 8.413-13.051 14.154-.018.067-.028.137-.043.205-.01.056-.025.111-.035.167-.918 5.381 1.287 10.55 6.209 14.555l124.085 100.949c4.303 3.5 10.508 5.861 17.471 6.667.136.023.271.038.406.047 1.705.189 3.45.291 5.195.291 6.477 0 12.709-1.28 18.023-3.701l315.121-143.521c7.37-3.358 12.153-8.666 13.116-14.526.01-.058.014-.114.023-.172.009-.071.024-.142.029-.212.763-5.236-1.439-10.256-6.25-14.173l-124.083-100.948c-4.341-3.535-10.634-5.916-17.715-6.706zm-343.325 166.129 178.102.242-40.568 108.852c-4.26-.84-7.924-2.381-10.497-4.474l-124.085-100.949c-1.106-.901-2.297-2.146-2.952-3.671zm264.391-7.641-262.14-.356c1.47-1.478 3.476-2.83 5.887-3.927l315.122-143.523c3.854-1.757 8.559-2.782 13.377-2.946zm-77.756 7.895 80.268.109h.005c1.539 0 2.942-.883 3.607-2.271l22.122-46.16 188.37 7.225c-1.485 1.568-3.571 3.01-6.118 4.171l-315.122 143.521c-4.02 1.831-8.962 2.863-13.964 2.964zm109.769-56.184 48.797-101.822c4.391.83 8.163 2.395 10.789 4.534l124.083 100.946c1.063.866 2.204 2.049 2.87 3.497zm-284.044-72.963c7.55 2.588 17.852 5.493 30.891 7.808 6.561 21.794 26.966 37.732 51.068 37.732s44.506-15.938 51.067-37.731c13.04-2.314 23.342-5.221 30.892-7.808 6.567-2.251 28.107-10.275 29.59-19.042.5-2.954-1.154-5.615-4.213-6.78-8.199-3.123-23.706-15.715-23.706-41.023v-65.577c0-35.28-23.266-65.224-55.259-75.308-4.457-19.471-15.335-32.911-28.371-32.911s-23.915 13.441-28.372 32.912c-31.99 10.087-55.254 40.029-55.254 75.308v65.577c0 25.307-15.509 37.9-23.71 41.023-3.059 1.165-4.712 3.826-4.212 6.779 1.483 8.767 23.023 16.791 29.589 19.041zm6.333-132.42c0-39.118 31.826-70.943 70.944-70.943h9.367c39.119 0 70.945 31.825 70.945 70.943v65.577c0 27.906 16.115 42.666 26.986 47.707-6.54 6.394-39.458 21.543-93.577 23.096-.041.001-.082.003-.123.005-1.558.093-2.942.138-4.231.138h-9.367c-1.293 0-2.677-.045-4.23-.138-.041-.002-.082-.004-.123-.005-54.114-1.553-87.033-16.7-93.579-23.095 10.829-5.005 26.988-19.767 26.988-47.708zm75.626-100.219c8.206 0 15.552 9.258 19.495 22.689-4.801-.916-9.748-1.414-14.811-1.414h-9.367c-5.064 0-10.012.499-14.814 1.414 3.945-13.431 11.291-22.689 19.497-22.689zm0 270.179c-19.087 0-35.443-11.745-42.098-28.307 9.666 1.365 20.585 2.368 32.771 2.72 1.688.1 3.208.148 4.644.148h9.367c1.432 0 2.951-.049 4.644-.147 12.185-.353 23.103-1.354 32.768-2.72-6.654 16.561-23.009 28.306-42.096 28.306zm183.043-97.039c4.808 4.807 11.198 7.455 17.993 7.455.708 0 1.417-.03 2.103-.087 7.469-.618 14.251-4.472 18.608-10.574l115.917-162.336c8.151-11.418 5.495-27.342-5.921-35.498-4.342-3.1-9.449-4.738-14.769-4.738-8.212 0-15.961 3.985-20.729 10.662l-98.456 137.886-50.708-50.709c-4.808-4.807-11.198-7.454-17.996-7.454s-13.188 2.647-17.995 7.454c-4.807 4.806-7.454 11.196-7.454 17.994s2.647 13.188 7.453 17.996zm-41.618-102.283 54.047 54.049c.832.832 1.988 1.258 3.159 1.158 1.172-.097 2.242-.705 2.925-1.662l101.2-141.729c3.269-4.578 8.585-7.311 14.218-7.311 3.643 0 7.143 1.124 10.119 3.249 7.828 5.591 9.648 16.51 4.06 24.339l-115.917 162.334c-2.987 4.184-7.637 6.826-12.764 7.25-.469.04-.953.06-1.437.06-4.658 0-9.04-1.815-12.336-5.112l-71.952-71.95c-3.295-3.296-5.11-7.678-5.11-12.339s1.815-9.042 5.11-12.337c3.296-3.295 7.678-5.111 12.339-5.111s9.043 1.817 12.339 5.112z" display="inline" fill="url(#SVGID_2_)"/></g></svg>